<mxfile host="app.diagrams.net" modified="2021-01-22T07:48:36.077Z" agent="5.0 (Windows NT 10.0; Win64; x64) AppleWebKit/537.36 (KHTML, like Gecko) Chrome/88.0.4324.96 Safari/537.36" etag="aoJjtmqZ3bROp6fleg4M" version="13.10.0" type="github">
  <diagram id="gZ_6pNKIC-Ko8Jtuyky0" name="Page-1">
    <mxGraphModel dx="1038" dy="548" grid="1" gridSize="10" guides="1" tooltips="1" connect="1" arrows="1" fold="1" page="1" pageScale="1" pageWidth="850" pageHeight="1100" math="0" shadow="0">
      <root>
        <mxCell id="0" />
        <mxCell id="1" parent="0" />
        <mxCell id="5-iBlrHr3-fRCyMWQKub-1" value="&lt;font style=&quot;font-size: 14px&quot;&gt;Candidate Login&lt;/font&gt;" style="rounded=0;whiteSpace=wrap;html=1;" vertex="1" parent="1">
          <mxGeometry x="315" y="120" width="130" height="60" as="geometry" />
        </mxCell>
        <mxCell id="5-iBlrHr3-fRCyMWQKub-10" value="" style="edgeStyle=orthogonalEdgeStyle;rounded=0;orthogonalLoop=1;jettySize=auto;html=1;" edge="1" parent="1" source="5-iBlrHr3-fRCyMWQKub-2" target="5-iBlrHr3-fRCyMWQKub-1">
          <mxGeometry relative="1" as="geometry" />
        </mxCell>
        <mxCell id="5-iBlrHr3-fRCyMWQKub-2" value="&lt;font style=&quot;font-size: 14px&quot;&gt;Check Validate&lt;/font&gt;" style="rhombus;whiteSpace=wrap;html=1;" vertex="1" parent="1">
          <mxGeometry x="310" y="240" width="140" height="80" as="geometry" />
        </mxCell>
        <mxCell id="5-iBlrHr3-fRCyMWQKub-3" value="&lt;font style=&quot;font-size: 14px&quot;&gt;Added To the Candidate List&lt;/font&gt;" style="rounded=1;whiteSpace=wrap;html=1;" vertex="1" parent="1">
          <mxGeometry x="280" y="410" width="200" height="40" as="geometry" />
        </mxCell>
        <mxCell id="5-iBlrHr3-fRCyMWQKub-4" value="False" style="endArrow=classic;html=1;exitX=1;exitY=0.5;exitDx=0;exitDy=0;" edge="1" parent="1" source="5-iBlrHr3-fRCyMWQKub-2">
          <mxGeometry width="50" height="50" relative="1" as="geometry">
            <mxPoint x="400" y="310" as="sourcePoint" />
            <mxPoint x="530" y="280" as="targetPoint" />
          </mxGeometry>
        </mxCell>
        <mxCell id="5-iBlrHr3-fRCyMWQKub-5" value="Invalid" style="endArrow=classic;html=1;" edge="1" parent="1">
          <mxGeometry width="50" height="50" relative="1" as="geometry">
            <mxPoint x="530" y="280" as="sourcePoint" />
            <mxPoint x="530" y="160" as="targetPoint" />
          </mxGeometry>
        </mxCell>
        <mxCell id="5-iBlrHr3-fRCyMWQKub-6" value="" style="endArrow=classic;html=1;" edge="1" parent="1">
          <mxGeometry width="50" height="50" relative="1" as="geometry">
            <mxPoint x="531" y="160" as="sourcePoint" />
            <mxPoint x="450" y="158" as="targetPoint" />
          </mxGeometry>
        </mxCell>
        <mxCell id="5-iBlrHr3-fRCyMWQKub-8" value="" style="endArrow=classic;html=1;exitX=0.5;exitY=1;exitDx=0;exitDy=0;" edge="1" parent="1" source="5-iBlrHr3-fRCyMWQKub-1">
          <mxGeometry width="50" height="50" relative="1" as="geometry">
            <mxPoint x="385" y="190" as="sourcePoint" />
            <mxPoint x="380" y="240" as="targetPoint" />
          </mxGeometry>
        </mxCell>
        <mxCell id="5-iBlrHr3-fRCyMWQKub-12" value="True" style="endArrow=classic;html=1;exitX=0.5;exitY=1;exitDx=0;exitDy=0;entryX=0.5;entryY=0;entryDx=0;entryDy=0;" edge="1" parent="1" source="5-iBlrHr3-fRCyMWQKub-2" target="5-iBlrHr3-fRCyMWQKub-3">
          <mxGeometry width="50" height="50" relative="1" as="geometry">
            <mxPoint x="400" y="310" as="sourcePoint" />
            <mxPoint x="450" y="260" as="targetPoint" />
          </mxGeometry>
        </mxCell>
      </root>
    </mxGraphModel>
  </diagram>
</mxfile>
